<svg width="25" height="25" viewBox="0 0 25 25" fill="none" xmlns="http://www.w3.org/2000/svg">
<path d="M8 5.69727H17C17.62 5.69727 18.17 5.71727 18.66 5.78727C21.29 6.07727 22 7.31727 22 10.6973V14.6973C22 18.0773 21.29 19.3173 18.66 19.6073C18.17 19.6773 17.62 19.6973 17 19.6973H8C7.38 19.6973 6.83 19.6773 6.34 19.6073C3.71 19.3173 3 18.0773 3 14.6973V10.6973C3 7.31727 3.71 6.07727 6.34 5.78727C6.83 5.71727 7.38 5.69727 8 5.69727Z" stroke="#999999" stroke-width="1.5" stroke-linecap="round" stroke-linejoin="round"/>
<path d="M5 2.69727H20" stroke="#999999" stroke-width="1.5" stroke-linecap="round" stroke-linejoin="round"/>
<path d="M5.5 22.6973H20.5" stroke="#999999" stroke-width="1.5" stroke-linecap="round" stroke-linejoin="round"/>
</svg>
