<svg width="25" height="25" viewBox="0 0 25 25" fill="none" xmlns="http://www.w3.org/2000/svg">
<path d="M8.5 2.69727V5.69727" stroke="#999999" stroke-width="1.5" stroke-miterlimit="10" stroke-linecap="round" stroke-linejoin="round"/>
<path d="M16.5 2.69727V5.69727" stroke="#999999" stroke-width="1.5" stroke-miterlimit="10" stroke-linecap="round" stroke-linejoin="round"/>
<path d="M16.5 4.19727C19.83 4.37727 21.5 5.64727 21.5 10.3473V16.5273C21.5 20.6473 20.5 22.7073 15.5 22.7073H9.5C4.5 22.7073 3.5 20.6473 3.5 16.5273V10.3473C3.5 5.64727 5.17 4.38727 8.5 4.19727H16.5Z" stroke="#999999" stroke-width="1.5" stroke-miterlimit="10" stroke-linecap="round" stroke-linejoin="round"/>
<path d="M21.25 18.2974H3.75" stroke="#999999" stroke-width="1.5" stroke-miterlimit="10" stroke-linecap="round" stroke-linejoin="round"/>
<path d="M12.5 8.94727C11.27 8.94727 10.23 9.61727 10.23 10.9173C10.23 11.5373 10.52 12.0073 10.96 12.3073C10.35 12.6673 10 13.2473 10 13.9273C10 15.1673 10.95 15.9373 12.5 15.9373C14.04 15.9373 15 15.1673 15 13.9273C15 13.2473 14.65 12.6573 14.03 12.3073C14.48 11.9973 14.76 11.5373 14.76 10.9173C14.76 9.61727 13.73 8.94727 12.5 8.94727ZM12.5 11.7873C11.98 11.7873 11.6 11.4773 11.6 10.9873C11.6 10.4873 11.98 10.1973 12.5 10.1973C13.02 10.1973 13.4 10.4873 13.4 10.9873C13.4 11.4773 13.02 11.7873 12.5 11.7873ZM12.5 14.6973C11.84 14.6973 11.36 14.3673 11.36 13.7673C11.36 13.1673 11.84 12.8473 12.5 12.8473C13.16 12.8473 13.64 13.1773 13.64 13.7673C13.64 14.3673 13.16 14.6973 12.5 14.6973Z" fill="#999999"/>
</svg>
